  <svg
      xmlns="http://www.w3.org/2000/svg"
      width="288"
      height="288"
      viewBox="0 0 288 288"
        fill="#fff"
    >
      <defs>
        <clipPath id="clip-path">
          <path
              fill="#fff"
            d="M0 0H288V288H0z"
            data-name="Rectangle 2"
            transform="translate(1 1.098)"
            
          ></path>
        </clipPath>
      </defs>
      <g clipPath="url(#clip-path)" transform="translate(-1 -1.098)">
        <path
          d="M25 19a6.007 6.007 0 00-6 6v32a6.007 6.007 0 006 6h153a6.007 6.007 0 006-6V25a6.007 6.007 0 00-6-6H25m0-19h153a25 25 0 0125 25v32a25 25 0 01-25 25H25A25 25 0 010 57V25A25 25 0 0125 0z"
          data-name="Rectangle 1"
          transform="translate(44 166.098)"
        ></path>
        <path
          d="M25 19a6.007 6.007 0 00-6 6v32a6.007 6.007 0 006 6h74a6.007 6.007 0 006-6V25a6.007 6.007 0 00-6-6H25m0-19h74a25 25 0 0125 25v32a25 25 0 01-25 25H25A25 25 0 010 57V25A25 25 0 0125 0z"
          data-name="Rectangle 2"
          transform="translate(39 65.098)"
        ></path>
        <path
          d="M25 19a6.007 6.007 0 00-6 6v32a6.007 6.007 0 006 6h32a6.007 6.007 0 006-6V25a6.007 6.007 0 00-6-6H25m0-19h32a25 25 0 0125 25v32a25 25 0 01-25 25H25A25 25 0 010 57V25A25 25 0 0125 0z"
          data-name="Rectangle 3"
          transform="rotate(45 43.412 269.08)"
        ></path>
      </g>
    </svg>