    <svg
      xmlns="http://www.w3.org/2000/svg"
      width="24"
      height="24"
      fill="none"
      viewBox="0 0 24 24"
    >
      <path
        fill="#fff"
        fillRule="evenodd"
        d="M3 8a5 5 0 015-5h8a5 5 0 015 5v8a5 5 0 01-5 5H8a5 5 0 01-5-5V8zm5-3a3 3 0 00-3 3v8a3 3 0 003 3h8a3 3 0 003-3V8a3 3 0 00-3-3H8z"
        clipRule="evenodd"
      ></path>
      <path
    fill="#fff"
        fillRule="evenodd"
        d="M16.5 8.5a1 1 0 100-2 1 1 0 000 2zM10 12a2 2 0 114 0 2 2 0 01-4 0zm2-4a4 4 0 100 8 4 4 0 000-8z"
        clipRule="evenodd"
      ></path>
    </svg>