 <svg
      xmlns="http://www.w3.org/2000/svg"
      width="127.584"
      height="66.03"
      viewBox="0 0 127.584 66.03"
    >
      <g transform="translate(-2.77 -2.3)">
        <g fill="#BFF200" data-name="#104310ff">
          <path
            d="M56.83 2.3c3.93 2.65 3.8 8.28 3.24 12.49-.35-.27-1.04-.83-1.39-1.11-.14-3.86-1.19-7.59-1.85-11.38z"
            data-name="Path 18"
          ></path>
          <path
            d="M34.41 7.12c.45-.67 1.36-2 1.81-2.67 2.13 1.08 2.99 3.61.92 5.28q-1.395-1.275-2.73-2.61z"
            data-name="Path 19"
          ></path>
          <path
            d="M63.82 6.85c1.69-.69 3.48-1.44 4.99.12-1.25.93-2.52 1.83-3.76 2.78a20.078 20.078 0 011.83 3.38c1.93-.05 5.33-.2 4.74 2.71-.5 2.75-3.79.86-3.49-1.35-.34.17-1.03.51-1.37.68-.34 4.09-6.64 8.24-9.09 3.52a7.6 7.6 0 007.47-5.47 5.341 5.341 0 01-1.32-6.37z"
            data-name="Path 20"
          ></path>
          <path
            d="M23.74 9.62c.33-.56 1-1.68 1.34-2.25 2.12 1.16 2.86 3.59 1.01 5.39-.68-.98-2.84-1.63-2.35-3.14z"
            data-name="Path 21"
          ></path>
          <path
            d="M41.52 9.65c1.51-.22 2.72 1.23 4.08 1.74 1.58 1.07 4.95-.74 4.93 2.08-4.95 2.03-6.41 9.32-12.48 8.91-5.25-.68-4.72-7.4-4.54-11.32 3.38 1.75.58 7.95 4.52 9.46 3.72-.3 5.6-4.3 7.85-6.83-1.26-.68-2.52-1.35-3.8-1.99-.86 2.11-1.21 4.66-3.21 6.07-.06-2.8.16-6.32 2.65-8.12z"
            data-name="Path 22"
          ></path>
          <path
            d="M54.14 9.39a17.68 17.68 0 011.68.72c-.01 4.99-1.25 10.29-4.84 13.96a12.775 12.775 0 01-12.53 4.2c-1.33-.22-1.82-1.55-2.43-2.56 3.43.03 7.19.63 10.15-1.58 5.24-2.95 7.16-9.15 7.97-14.74z"
            data-name="Path 23"
          ></path>
          <path
            d="M28.43 13.12c4.05 1.63 4.01 6.99 3.64 10.61-.49-.61-.98-1.22-1.45-1.84l.44 2.51-2.14-.82c.5.44 1 .89 1.5 1.34-.64 1.91-1 3.9-1.6 5.83-1.51-1.02-.94-3.09-1.3-4.62-5.49.44-8.05-7.05-4.06-10.39 3.75-1.79 5.29 2.94 6.51 5.46 1.41-2.71-.9-5.45-1.54-8.08M24 22.93c.97.21 2.91.62 3.88.82a15.519 15.519 0 00-1.84-6.66c-1.83 1.26-3.79 3.67-2.04 5.84z"
            data-name="Path 24"
          ></path>
          <path
            d="M16.59 13.96c3.73 2.85 3.8 8.42 3.37 12.7-2.33-.95-.91-4.34-3.06-5.23-.57 4.08-1.92 8.54-6.21 10.17.17-3.72 4-6.02 4.05-9.75-.85-2.93-4.3-.66-6.15-1.87.48-2.02 2.71-2.77 4.56-2.28a27.091 27.091 0 014.66 3.9c-.2-2.58-.89-5.08-1.22-7.64z"
            data-name="Path 25"
          ></path>
          <path
            d="M2.77 22.75c2-.51 4.28-1.72 6.24-.5 3.92 1.99 1.31 9.19-3.02 8.16-3.52-.77-2.24-5.13-3.22-7.66m1.93 5.18c2.16.4 5.68-1.26 4.01-3.82-2 .37-3.12 2.17-4.01 3.82z"
            data-name="Path 26"
          ></path>
        </g>
        <g fill="#BFF200" data-name="#00d300ff">
          <path
            d="M89.45 17.07c.38-3.83 4.08-6.3 7.51-7.3 1.87-.47 2.54 1.78 2.73 3.16 1.51 8.62-.26 17.51 1.37 26.12.16 1.65 1.53 2.68 2.52 3.85 1.26-.93 2.7-2.02 2.46-3.82.1-7.76-2.54-16.67 2.58-23.43 4.43-5.59 15.75-4.39 16.84 3.45-.96 1.48-1.58 3.51-3.44 4.09-3.23.96-4.47-3.03-7.04-4.1-4.55 2.31-4.04 8.14-3.31 12.37.51 1.72.88 4.56 3.28 4.43 5.04-.06 7.9-5.08 12.07-7.19 2.17-.88 2.78 1.7 3.15 3.22a7.644 7.644 0 01-3.29 7.96c-4.75 3.42-10.45 5.17-15.92 7.09-4.94 1.47-10.88 2.82-15.51-.24-3.46-2.36-3.92-6.91-4.58-10.71-.6-6.31-1.49-12.61-1.42-18.95z"
            data-name="Path 27"
          ></path>
          <path
            d="M73.43 19.99a9.122 9.122 0 016.52-7.2c1.66-.15 1.8 2.05 2.53 3.09 2.95 7.37 4.1 15.32 4.86 23.18.18 3.56.38 8.06-3 10.28-3.98 2.63-8.98.73-12.63-1.58-1.42 2.49-2.68 5.58-5.69 6.46-2.81.07-5.01-1.91-7.17-3.4-1.58 2.37-3.14 5-5.85 6.22-2.69 1.36-5.73.56-8.53.07a9.652 9.652 0 01-9.48 4.19c-.8 2.5-.7 6.68-4.04 7.03-2.97-.97-4.6-3.89-5.69-6.61-2.89-7.61-3.98-15.78-4.41-23.86.31-1.58.36-3.92 2.24-4.41a10.046 10.046 0 018.82 3.52c.81 5.1.06 10.34.81 15.46.27 1.87 1.74 3.07 3.11 4.19.97-.39 1.93-.77 2.9-1.14 1.74-5.95-1.93-11.63-2.77-17.44-1.07-3.39 2.37-7.58 5.96-6.27 2.13 1.74 1.32 4.8 1.7 7.18.52 4.25.29 8.97 2.69 12.7 1.41 1.96 3.8-.03 4.24-1.72.99-6.02-3.43-11.18-3.75-17.05.77-2.93 4.07-6.49 7.2-5.05 3.29 5.68 2.1 13.01 5.41 18.69a2.244 2.244 0 004.29-.51c.22-4.44-2.78-8.55-1.93-13.04 1.27-2.91 3.67-6.11 7.28-5.42 1.54 5.06 1.76 10.39 2.99 15.51.27 1.96 2.1 2.76 3.61 3.63 3.8-2.48 3.39-7.3 2.78-11.22-1.05-5.36-4.16-10.09-5-15.48z"
            data-name="Path 28"
          ></path>
          <path
            d="M68.93 54.99c2.52-1.01 5.94-2.36 8.12.03 2.98 2.3 1.36 7.24-2.14 7.99-2.91 1.36-5.35-.93-7.11-2.97-.22 4.97-6.18 6.69-9.85 4.03-1.46-2.57-1.64-6.44 1.65-7.63 2.93-1.76 6.2-.09 8.14 2.29.39-1.25.78-2.5 1.19-3.74z"
            data-name="Path 29"
          ></path>
        </g>
      </g>
    </svg>