  <svg
      xmlns="http://www.w3.org/2000/svg"
      width="24"
      height="24"
      fill="none"
      viewBox="0 0 24 24"
    >
      <path
        fill="#fff"
        fillRule="evenodd"
        d="M17.58 3.173c2.029-.767 4.013 1.218 3.247 3.247l-4.774 12.644c-1.018 2.696-4.882 2.545-5.687-.223l-1.02-3.507a1 1 0 00-.68-.68l-3.508-1.02c-2.768-.805-2.919-4.67-.222-5.688l12.643-4.773zm1.376 2.54a.52.52 0 00-.67-.67L5.642 9.818c-.898.34-.848 1.628.075 1.896l3.507 1.02a3 3 0 012.043 2.043l1.02 3.507c.268.923 1.556.973 1.895.074l4.774-12.643z"
        clipRule="evenodd"
      ></path>
    </svg>