  <svg
      xmlns="http://www.w3.org/2000/svg"
   width="29" height="29"
      fill="none"
      viewBox="0 0 24 24"
    >
      <path
        fill="#12131A"
        d="M10 14a1 1 0 100-2 1 1 0 000 2zM13 18a1 1 0 100-2 1 1 0 000 2zM4.479 9l-.252-2H6c3.151 0 4.766.535 6.316 1.051l.017.006C13.777 8.538 15.163 9 18 9h1.521l-.252 2h-1.27c-3.15 0-4.765-.535-6.315-1.051l-.017-.006C10.223 9.462 8.837 9 6 9H4.479z"
      ></path>
      <path
        fill="#12131A"
        fillRule="evenodd"
        d="M4.022 5.375A3 3 0 016.998 2h10.004a3 3 0 012.977 3.375l-1.766 14A3 3 0 0115.236 22H8.764a3 3 0 01-2.977-2.625l-1.765-14zM6.998 4a1 1 0 00-.992 1.125l1.766 14a1 1 0 00.992.875h6.472a1 1 0 00.993-.875l1.765-14A1 1 0 0017.002 4H6.998z"
        clipRule="evenodd"
      ></path>
    </svg>