  <svg
      xmlns="http://www.w3.org/2000/svg"
      width="24"
      height="24"
      fill="none"
      viewBox="0 0 24 24"
    >
      <path
        fill="#12131A"
        d="M13 2a1 1 0 011 1v2h-2V3a1 1 0 011-1zM14 20v-7h-2v7h-1a1 1 0 100 2h4a1 1 0 100-2h-1z"
      ></path>
      <path
        fill="#12131A"
        fillRule="evenodd"
        d="M8.475 7.019c.073-.015.158-.019.592-.019H16c.48 0 .79 0 1.026.017.228.015.315.042.357.06a1 1 0 01.54.54c.018.042.045.129.06.357C18 8.21 18 8.52 18 9s0 .79-.017 1.026c-.015.228-.042.315-.06.357a1 1 0 01-.54.54c-.042.018-.129.045-.357.06A16.97 16.97 0 0116 11H9.067c-.434 0-.52-.004-.592-.018a1 1 0 01-.244-.082c-.067-.032-.137-.08-.484-.34l-.587-.44c-.45-.337-.732-.55-.928-.726-.156-.14-.193-.203-.198-.213a.5.5 0 010-.361c.005-.01.042-.073.198-.214.196-.176.479-.39.928-.726l.587-.44c.347-.26.417-.308.484-.34a1 1 0 01.244-.081zm-2.442 2.16v.002-.002zM9 5c-.33 0-.621 0-.909.056a3 3 0 00-.73.243c-.264.128-.497.303-.76.5l-.054.041-.62.465c-.406.304-.762.571-1.032.814-.282.254-.564.561-.725.975a2.5 2.5 0 000 1.812c.16.414.443.721.725.975.27.243.626.51 1.031.814l.62.465.054.04c.264.198.497.373.76.5.233.113.478.195.731.244.288.057.579.056.909.056h7.032c.439 0 .817 0 1.13-.021.33-.023.66-.072.986-.207a3 3 0 001.624-1.624c.135-.326.184-.656.207-.986C20 9.85 20 9.471 20 9.032v-.064c0-.439 0-.817-.021-1.13a3.072 3.072 0 00-.207-.986 3 3 0 00-1.624-1.624 3.07 3.07 0 00-.986-.207 17.813 17.813 0 00-1.13-.02H9.067L9 5z"
        clipRule="evenodd"
      ></path>
    </svg>